<?xml version="1.0" encoding="utf-8"?>
<!-- Generator: Adobe Illustrator 24.0.1, SVG Export Plug-In . SVG Version: 6.00 Build 0)  -->
<svg version="1.1" id="Camada_1" xmlns="http://www.w3.org/2000/svg" xmlns:xlink="http://www.w3.org/1999/xlink" x="0px" y="0px"
	 viewBox="0 0 242.5 59" style="enable-background:new 0 0 242.5 59;" xml:space="preserve">
<style type="text/css">
	.st0{fill:#171717;}
	.st1{fill:#EE572E;}
</style>
<g transform="translate(57.593 3.961)">
	<path class="st0" d="M31.9,13.7h-8.6c-0.2,0-0.4,0.2-0.4,0.4v21c0,0.2,0.2,0.4,0.4,0.4c0,0,0,0,0,0h8.6c0.2,0,0.4-0.2,0.4-0.4
		c0,0,0,0,0,0V33c0-0.2-0.2-0.4-0.4-0.4c0,0,0,0,0,0H26v-6.6h4.7c0.2,0,0.4-0.2,0.4-0.4v-2.1c0-0.2-0.2-0.4-0.4-0.4H26v-6.3h5.9
		c0.2,0,0.4-0.2,0.4-0.4c0,0,0,0,0,0v-2.1C32.3,13.9,32.1,13.7,31.9,13.7z"/>
	<path class="st0" d="M43.4,32.6h-5.6V14.1c0-0.2-0.2-0.4-0.4-0.4h-2.3c-0.2,0-0.4,0.2-0.4,0.4v21c0,0.2,0.2,0.4,0.4,0.4
		c0,0,0,0,0,0h8.3c0.2,0,0.4-0.2,0.4-0.4l0,0V33C43.8,32.7,43.7,32.6,43.4,32.6z"/>
	<path class="st0" d="M46.2,13.7h2.4c0.2,0,0.4,0.2,0.4,0.4v21c0,0.2-0.2,0.4-0.4,0.4h-2.4c-0.2,0-0.4-0.2-0.4-0.4v-21
		C45.8,13.9,46,13.7,46.2,13.7C46.2,13.7,46.2,13.7,46.2,13.7z"/>
	<path class="st0" d="M62.8,13.7h-2.2c-0.2,0-0.4,0.1-0.4,0.3l-3,16.1l-3-16.1c0-0.2-0.2-0.3-0.4-0.3h-2.4c-0.1,0-0.2,0.1-0.3,0.1
		C51,14,51,14.1,51,14.2l4,21c0,0.2,0.2,0.3,0.4,0.3h3.4c0.2,0,0.4-0.1,0.4-0.3l3.9-20.9C63.2,14,63.1,13.8,62.8,13.7
		C62.8,13.7,62.8,13.7,62.8,13.7L62.8,13.7z"/>
	<path class="st0" d="M74.2,13.7h-8.6c-0.2,0-0.4,0.2-0.4,0.4c0,0,0,0,0,0v21c0,0.2,0.2,0.4,0.4,0.4c0,0,0,0,0,0h8.6
		c0.2,0,0.4-0.2,0.4-0.4c0,0,0,0,0,0V33c0-0.2-0.2-0.4-0.4-0.4h-5.9v-6.6h4.7c0.2,0,0.4-0.2,0.4-0.4l0,0v-2.1c0-0.2-0.2-0.4-0.4-0.4
		l0,0h-4.7v-6.3h5.9c0.2,0,0.4-0.2,0.4-0.4v-2.1C74.6,13.9,74.5,13.7,74.2,13.7z"/>
	<path class="st0" d="M87.2,32.6v-3.3c0-2.2-0.7-3.6-2-4.4c1.3-0.8,2-2.2,2-4.3v-1.7c0-3.5-1.7-5.2-5.1-5.2h-4.7
		c-0.2,0-0.4,0.2-0.4,0.4v21c0,0.2,0.2,0.4,0.4,0.4c0,0,0,0,0,0h2.3c0.2,0,0.4-0.2,0.4-0.4l0,0v-8.6h1.2c1.9,0,2.6,0.8,2.6,2.7v3.3
		c-0.1,0.9,0.1,1.9,0.4,2.7c0.1,0.1,0.2,0.2,0.4,0.2h2.4c0.1,0,0.3-0.1,0.4-0.2c0.1-0.1,0.1-0.3,0-0.4
		C87.3,34.2,87.2,33.4,87.2,32.6z M84.1,21.1c0,2.1-0.9,2.5-2.6,2.5h-1.3v-6.9H82c1.4,0,2,0.7,2,2.5L84.1,21.1z"/>
	<path class="st0" d="M100.5,13.7h-2.2c-0.2,0-0.3,0.1-0.4,0.3L95,23.1L92.1,14c-0.1-0.2-0.2-0.3-0.4-0.3h-2.4
		c-0.1,0-0.3,0.1-0.3,0.2c-0.1,0.1-0.1,0.2-0.1,0.4l4.4,13.4v7.5c0,0.2,0.2,0.4,0.4,0.4c0,0,0,0,0,0H96c0.2,0,0.4-0.2,0.4-0.4
		c0,0,0,0,0,0v-7.5l4.4-13.4c0,0,0-0.1,0-0.2C100.9,13.9,100.7,13.7,100.5,13.7z"/>
	<path class="st0" d="M15.3,13.7H6.8l2.5,2.5l0.1,0.1c0.3,0.3,0.6,0.4,1,0.4h4.8c0.9,0,2.1,0.3,2.1,2.6V30c0,1.1-0.2,2.6-2.1,2.6
		h-2.1V20l0,0l0,0c0-0.2-0.2-0.4-0.4-0.4h0h0h-2.3h0h0c-0.2,0-0.4,0.2-0.4,0.4v15.1c0,0.2,0.2,0.4,0.4,0.4c0,0,0,0,0,0h4.9
		c3.3,0,5.2-2,5.2-5.6V19.3C20.5,15.7,18.6,13.7,15.3,13.7z"/>
	<g transform="translate(97.833)">
		<path class="st0" d="M23.2,13.7h2.4c0.2,0,0.4,0.2,0.4,0.4v21c0,0.2-0.2,0.4-0.4,0.4h-2.4c-0.2,0-0.4-0.2-0.4-0.4v-21
			C22.9,13.9,23,13.7,23.2,13.7z"/>
		<path class="st0" d="M38.8,32.6v-3.3c0-2.2-0.7-3.6-2-4.4c1.3-0.8,2-2.2,2-4.3v-1.7c0-3.5-1.7-5.2-5.1-5.2h-4.7
			c-0.2,0-0.4,0.2-0.4,0.4v0v21c0,0.2,0.2,0.4,0.4,0.4c0,0,0,0,0,0h2.3c0.2,0,0.4-0.2,0.4-0.4v-8.5H33c1.9,0,2.6,0.8,2.6,2.7v3.3
			c-0.1,0.9,0.1,1.9,0.4,2.7c0.1,0.1,0.2,0.2,0.4,0.2h2.4c0.2,0,0.4-0.2,0.4-0.4c0-0.1,0-0.1,0-0.2C38.9,34.2,38.8,33.4,38.8,32.6z
			 M35.7,19.1v2c0,2.1-0.9,2.5-2.6,2.5h-1.3v-6.9h1.9C35.1,16.7,35.7,17.4,35.7,19.1z"/>
		<path class="st0" d="M50.5,13.7h-8.6c-0.2,0-0.4,0.2-0.4,0.4v21c0,0.2,0.2,0.4,0.4,0.4c0,0,0,0,0,0h8.6c0.2,0,0.4-0.2,0.4-0.4V33
			c0-0.2-0.2-0.4-0.4-0.4h-5.9v-6.6h4.7c0.2,0,0.4-0.2,0.4-0.4v-2.1c0-0.2-0.2-0.4-0.4-0.4c0,0,0,0,0,0h-4.7v-6.3h5.9
			c0.2,0,0.4-0.2,0.4-0.4v-2.1C50.9,13.9,50.8,13.7,50.5,13.7z"/>
		<path class="st0" d="M62.9,13.7h-10c-0.2,0-0.4,0.2-0.4,0.4v0v2.1c0,0.2,0.2,0.4,0.4,0.4c0,0,0,0,0,0h3.5v18.4
			c0,0.2,0.2,0.4,0.4,0.4c0,0,0,0,0,0h2.3c0.2,0,0.4-0.2,0.4-0.4V16.7h3.5c0.2,0,0.4-0.2,0.4-0.4v-2.1
			C63.3,13.9,63.2,13.7,62.9,13.7z"/>
		<path class="st0" d="M70.2,13.5c-3.3,0-5.2,2.1-5.2,5.7V30c0,3.6,1.9,5.7,5.2,5.7c3.3,0,5.2-2.1,5.2-5.7V19.2
			C75.4,15.6,73.5,13.5,70.2,13.5z M68.1,19.1c0-1.7,0.7-2.6,2.1-2.6c1.4,0,2.1,0.9,2.1,2.6v11.1c0,1.1-0.2,2.6-2.1,2.6
			c-1.4,0-2.1-0.9-2.1-2.6V19.1z"/>
		<path class="st0" d="M15.3,13.7H6.8l2.5,2.5l0.1,0.1c0.3,0.3,0.6,0.4,1,0.4h4.8c0.9,0,2.1,0.3,2.1,2.6V30c0,1.1-0.2,2.6-2.1,2.6
			h-2.1V20l0,0l0,0c0-0.2-0.2-0.4-0.4-0.4h0h0h-2.3h0h0c-0.2,0-0.4,0.2-0.4,0.4v15.1c0,0.2,0.2,0.4,0.4,0.4c0,0,0,0,0,0h4.9
			c3.3,0,5.2-2,5.2-5.6V19.3C20.5,15.7,18.6,13.7,15.3,13.7z"/>
	</g>
</g>
<path class="st1" d="M31.3,13.5H6.8l3.6,3.6l0.1,0.1c0.2,0.2,0.5,0.4,0.9,0.5c0.2,0.1,0.4,0.1,0.6,0.1h19.2c1.3,0,3.1,0.4,3.1,3.7
	v5.6c0,0.3,0,0.7-0.1,1c0,0.1,0,0.1,0,0.2c0,0.2-0.1,0.5-0.2,0.7l0,0c0,0.1-0.1,0.2-0.1,0.3c0,0,0,0.1-0.1,0.1l0,0.1
	c-0.5,0.9-1.5,1.3-2.5,1.3h-7.1l3.6,3.6l0.1,0.1c0.2,0.2,0.5,0.4,0.9,0.5c0.2,0.1,0.4,0.1,0.6,0.1h2c3.9,0,6.4-1.9,7.2-5.3
	c0.1-0.5,0.2-0.9,0.2-1.4c0-0.1,0-0.1,0-0.2c0-0.4,0.1-0.8,0.1-1.2v-5.2C38.8,16.4,36.1,13.5,31.3,13.5z"/>
<path class="st1" d="M39.9,22.1H15.5l3.6,3.6l0.1,0.1c0.2,0.2,0.5,0.4,0.9,0.5c0.2,0.1,0.4,0.1,0.6,0.1h19.2c1.3,0,3.1,0.4,3.1,3.7
	v5.6c0,0.3,0,0.7-0.1,1c0,0.3-0.1,0.6-0.2,0.9l0,0c0,0.1-0.1,0.2-0.1,0.3c0,0,0,0.1-0.1,0.1c0,0,0,0,0,0.1c-0.5,0.9-1.5,1.3-2.5,1.3
	h-7.1l3.6,3.6l0.1,0.1c0.2,0.2,0.5,0.4,0.9,0.5c0.2,0.1,0.4,0.1,0.6,0.1h2c3.9,0,6.4-1.9,7.2-5.3c0.1-0.5,0.2-1.1,0.3-1.6
	c0-0.4,0.1-0.8,0.1-1.2V35l0,0v-4.8C47.4,25,44.7,22.1,39.9,22.1z"/>
</svg>
