<svg width="1210" height="480" fill="none" xmlns="http://www.w3.org/2000/svg"><path d="M722.601 296.1h69.9l107.4 107.4h68.7" stroke="#013D80" stroke-width="1.012"/><path d="M722.601 321.7h60.1l111.5 111.6H1016.4" stroke="#E5614F" stroke-width="2"/><path d="M736 384h49.4l21.8 21.8" stroke="#7F4FE5" stroke-width="2"/><path d="M724.5 269H807l24.5-31.5H935l45-44.5" stroke="#3E6EB5" stroke-width="2"/><path d="M726 203h84.4l93.8-93.9h197.4l60.5-60.5" stroke="#013D80" stroke-width="2"/><path d="M463.1 321.7h-78.3L291 415.6H73.4" stroke="#0098FF" stroke-width="2"/><path d="M723.9 168.4H816l83.2-83.3h39.4" stroke="#013D80" stroke-width="1.012"/><path d="M1079.5 348.5l-27-27h-101l-11-12h-108L806 283h-55.5" stroke="#C7328A" stroke-width="2"/><path d="M475.101 229h-69.9l-107.4-107.4h-68.7" stroke="#013D80" stroke-width="1.012"/><path d="M475.1 203.4H415L303.5 91.9H181.4m293.7 43.2h-49.4l-21.8-21.8M726 248.8h49.4l21.8-21.8" stroke="#013D80" stroke-width="1.012"/><path d="M573.9 252h-71.7l-31.4 31.6H313.4l-26.9-26.8h-95.7L163 284.6" stroke="#78C3EB" stroke-width="2"/><path d="M460.201 246.1h-150.9l-63.7-63.6h-101" stroke="#9B5C8F" stroke-width="2"/><path d="M232 236H91.3" stroke="#013D80"/><path d="M998 174.4l-63.4 63.5" stroke="#3E6EB5" stroke-width="2"/><path d="M115.5 374h132l72-72h167" stroke="#000"/><path d="M994.6 185.7c-.8 0-1.6-.3-2.1-.9-.5-.6-.9-1.3-.9-2.1 0-1.6 1.3-3 3-3 .8 0 1.5.3 2.1.9.6.6.9 1.3.9 2.1s-.3 1.5-.9 2.1c-.5.6-1.3.9-2.1.9zm0-4.9c-1.1 0-2 .9-2 2 0 .5.2 1 .6 1.4.7.7 2 .7 2.8 0 .4-.4.6-.9.6-1.4 0-.5-.2-1-.6-1.4-.4-.4-.9-.6-1.4-.6zm89 159.8c-.8 0-1.5-.3-2.1-.9-.6-.6-.9-1.3-.9-2.1 0-1.6 1.3-3 3-3 .8 0 1.5.3 2.1.9.6.6.9 1.3.9 2.1s-.3 1.5-.9 2.1c-.5.6-1.3.9-2.1.9zm0-4.9c-1.1 0-2 .9-2 2 0 .5.2 1 .6 1.4.7.7 2 .7 2.8 0 .4-.4.6-.9.6-1.4 0-.5-.2-1-.6-1.4-.3-.4-.8-.6-1.4-.6zm-933.9-48.4c-.8 0-1.5-.3-2.1-.9-.6-.6-.9-1.3-.9-2.1s.3-1.5.9-2.1c.6-.6 1.3-.9 2.1-.9 1.6 0 3 1.3 3 3 0 .8-.3 1.5-.9 2.1-.5.6-1.3.9-2.1.9zm0-4.9c-.5 0-1 .2-1.4.6-.4.4-.6.9-.6 1.4 0 .5.2 1 .6 1.4.7.7 2 .7 2.8 0 .4-.4.6-.9.6-1.4 0-1.1-.9-2-2-2z" fill="#013D80"/><path d="M79 415.5C79 434 64 449 45.5 449S12 434 12 415.5 27 382 45.5 382 79 397 79 415.5z" fill="#fff" filter="url(#filter0_dd)"/><path d="M54 408c0 5.4 3.3 10.5 4.5 12.3.3.4.8.7 1.3.7H68c.5 0 1-.3 1.3-.7 1.3-1.8 4.5-7 4.5-12.3H54z" fill="#0098FF"/><path d="M48 411h1.2c.1 1.1.4 2.4.8 4-.4-1.6-.6-2.9-.8-4H48zm4 16c.7-1 1.4-2 2-3-.6 1-1.3 2-2 3z" fill="#131151"/><path d="M61.2 412.1c.6-2.5.8-4.1.8-4.1h-2.8c-.2 1.5-.4 3.1-.9 4.9 0 .1-.1.2-.1.4-.4 1.6-.9 3.2-1.4 4.9l-.6 1.8-.1-.1-.1-.1c-.5-.8-1.2-2.2-1.9-3.9v-.1c-.1-.2-.2-.5-.3-.8-.7-1.9-1.2-4.2-1.5-6.8H48v2.3h1.9c.2 1.2.5 2.7 1.1 4.4.7 2.2 1.9 4.7 3.6 7.2.1.1.1.2.2.3 0 .1.1.1.1.2l.1.1c-.2.5-.5 1-.7 1.5-.1.1-.1.3-.2.5-.4.8-.8 1.7-1.3 2.5h2.5c.6-.9 1.1-1.8 1.6-2.8.5-1.1 1-2.1 1.4-3.2.5-1.4 1-2.7 1.4-4 .1-.3.2-.5.2-.8.1-.2.1-.5.2-.7l.6-2.1.3-1.2c.2-.2.2-.2.2-.3zM53 432c1.1 0 2-.9 2-2s-.9-2-2-2-2 .9-2 2 .9 2 2 2zm16 0c1.1 0 2-.9 2-2s-.9-2-2-2-2 .9-2 2 .9 2 2 2zm-48.3-9c-2.9 0-4.6-1.5-4.6-5v-7.3H14v-2.3h2.1v-3.3l2.9-.1v3.4h3.6v2.3H19v7.3c0 1.9.8 2.6 2.2 2.6.6 0 1.2-.1 1.7-.2l.2 2.3c-.8.2-1.5.3-2.4.3zM31 407c.8 0 1.5.1 2 .2l-.4 2.6c-.4-.2-1-.2-1.4-.2-1.4 0-2.5.3-3.3.8V423H25v-14.5c1.5-.9 3.8-1.5 6-1.5zm9.4 16c-3.6 0-5.4-1.9-5.4-4.6 0-3.1 2.3-4.7 5.4-4.7.9 0 2.1.1 2.9.3v-1.3c0-2.1-1-3.3-3.2-3.3-1.3 0-2.6.3-3.7.8l-.6-2.4c1.1-.5 2.9-.9 4.5-.9 3.8 0 5.6 2.1 5.6 6v8.6c-1 .8-2.9 1.5-5.5 1.5zm2.9-2.9v-3.9c-.8-.2-1.6-.4-2.6-.4-1.7 0-3 .7-3 2.5 0 1.6 1 2.4 2.9 2.4 1.3 0 2.2-.3 2.7-.6z" fill="#131151"/><path d="M212 88.5c0 18.5-15 33.5-33.5 33.5S145 107 145 88.5 160 55 178.5 55 212 70 212 88.5z" fill="#fff" filter="url(#filter1_dd)"/><path d="M181.6 77.5v31.3l-3.1 1.9-3.1-1.9V77.5l-8.1 4.9v26.8l11.2 6.8 11.3-6.8V82.4l-8.2-4.9zM178.5 61L155 75.1v26.8l6.1 3.6V78.7l17.4-10.5 17.4 10.5h.1v26.7l6-3.5V75.1L178.5 61z" fill="#F37B20"/><path d="M202 74.9L178.5 61 155 74.9l6.1 3.5 17.4-10.3L196 78.4l6-3.5zm-20.4 2.4V87l8.2-4.9-8.2-4.8zm-14.3 4.8l8 4.8v-9.7l-8 4.9z" fill="#F37B20"/><path d="M125.5 216c18.5 0 33.5-15 33.5-33.5S144 149 125.5 149 92 164 92 182.5s15 33.5 33.5 33.5z" fill="#9B5C8F" filter="url(#filter2_dd)"/><path d="M100.4 173.6c.3-.4.8-.7 1.5-.7 1.2-.1 1.9.5 2 1.6.7 4.7 1.5 8.7 2.4 12l5.1-9.5c.5-.9 1-1.3 1.7-1.4 1-.1 1.7.5 1.9 1.9.6 3 1.3 5.5 2.2 7.8.6-5.7 1.6-9.9 3.1-12.4.3-.6.8-.9 1.5-1 .6-.1 1 .1 1.5.5.4.3.7.7.7 1.3 0 .4-.1.7-.2 1.1-.9 1.6-1.7 4.4-2.3 8.2-.6 3.7-.8 6.6-.6 8.7.1.5-.1 1.1-.3 1.5-.3.5-.7.7-1.3.8-.6.1-1.3-.2-1.8-.8-2.2-2.2-3.9-5.3-5.2-9.7-1.5 2.9-2.7 5.1-3.4 6.6-1.4 2.6-2.6 3.9-3.6 3.9-.6.1-1.2-.5-1.6-1.6-1.2-3-2.5-8.7-3.8-17.2.1-.6.2-1.2.5-1.6zm49.4 3.2c-.9-1.4-2.2-2.3-3.9-2.6-.4-.1-.9-.1-1.3-.1-2.3 0-4.2 1.1-5.7 3.4-1.2 2-1.9 4-1.9 6.4 0 1.8.4 3.2 1.2 4.5.9 1.4 2.2 2.3 3.9 2.6.4.1.9.1 1.3.1 2.4 0 4.3-1.1 5.7-3.4 1.2-2 1.9-4 1.9-6.4 0-1.8-.4-3.3-1.2-4.5zm-3 6.2c-.4 1.5-.9 2.6-1.8 3.4-.7.6-1.4.8-2 .7-.6-.1-1.1-.6-1.4-1.5-.3-.7-.4-1.4-.4-2.1 0-.5.1-1.1.1-1.6.2-.9.7-1.8 1.3-2.7.8-1.1 1.7-1.5 2.5-1.4.6.1 1.1.6 1.4 1.5.3.7.4 1.4.4 2.1 0 .5 0 1.1-.1 1.6zm-11.9-6.2c-.8-1.4-2-2.3-3.6-2.6-.4-.1-.8-.1-1.2-.1-2.2 0-3.9 1.1-5.3 3.4-1.1 2-1.8 4-1.8 6.4 0 1.8.3 3.2 1.1 4.5.8 1.4 2 2.3 3.6 2.6.4.1.8.1 1.2.1 2.2 0 4-1.1 5.3-3.4 1.1-2 1.8-4 1.8-6.4 0-1.8-.3-3.3-1.1-4.5zm-2.8 6.2c-.3 1.5-.9 2.6-1.7 3.4-.7.6-1.3.8-1.8.7-.5-.1-1-.6-1.3-1.5-.3-.7-.4-1.4-.4-2.1 0-.5.1-1.1.1-1.6.2-.9.6-1.8 1.2-2.7.7-1.1 1.5-1.5 2.4-1.4.5.1 1 .6 1.3 1.5.3.7.4 1.4.4 2.1-.1.5-.1 1.1-.2 1.6z" fill="#fff"/><circle cx="151.5" cy="294.5" r="33.5" fill="#78C3EB" filter="url(#filter3_dd)"/><path d="M172.9 288.6c-.7-1.8-3.8-2.5-11.3-2.5-18.6 0-22.7-.9-27.4-6-.3-.3-.6-.3-.9-.1-.3.2-.3.6-.1.9.2.3.4.7.6 1 1.9 3.3 4.7 8.2 21.2 8.2h2.9c7.3 0 8.7 1 9 1.5.3.8-1.4 2.7-2.9 4.3-1.4 1.4-2.9 3.2-3.9 4.9-.1.3-.1.7.1.9.1.1.3.1.4.1.1 0 .3-.1.5-.2 1.7-1.6 3.3-3 4.8-4.2 4.8-4.1 7.7-6.7 7-8.8zM143 304c-1.6 0-3 1.4-3 3s1.4 3 3 3 3-1.4 3-3-1.4-3-3-3zm12.5 0c-1.9 0-3.5 1.4-3.5 3s1.6 3 3.5 3 3.5-1.4 3.5-3c.1-1.6-1.5-3-3.5-3z" fill="#fff"/><path d="M1060 432.5c0 18.5-15 33.5-33.5 33.5S993 451 993 432.5s15-33.5 33.5-33.5 33.5 15 33.5 33.5z" fill="#fff" filter="url(#filter4_dd)"/><path d="M1024.9 403c7.8 3.2 15.5 6.7 23.2 10.1 3.9 1.7 6.1 4.7 6.8 8.8.3 2-.1 4.1-.3 6.1-.6 6.4-1.3 12.7-2 19.1-.6 5-4.1 8.9-9.1 10-6.8 1.5-13.7 2.9-20.6 4.3-.6.1-1.2 0-1.7.6h-4.7c-.2-.1-.3-.3-.5-.3-3.6-1-6-3.2-7.7-6.4-4-7.3-8.7-14.3-12.3-21.8v-4.6c1-2.7 2.6-5 4.6-7.1 3.5-3.6 6.8-7.4 10.2-11.1 2.8-3.1 5.4-6.4 9.8-7.6 1.4-.1 2.8-.1 4.3-.1zm-13.4 26v-6.3c0-1.8-1-2.7-2.8-2.8h-1.7c-.7 0-.9.2-.9.9v22.7c0 1.6 1 2.5 2.6 2.7 2.5.3 2.6.2 3-2.3 1.2 1.3 2.4 2.2 4.1 2.4 3.6.6 6.2-.9 8.3-3.7 2.9-3.9 2.6-9.9-.8-13.3-3.4-3.2-7.4-3.4-11.8-.3zm28.8 12.7c2.3-2.6 4.3-4.9 6.4-7.1 1.6-1.7 2.5-3.7 2.9-6 .2-1.1 0-1.7-1.4-1.6-4.1.1-8.2 0-12.2 0-1.9 0-2.5 1-1.7 2.8.6 1.2 1.6 1.7 2.9 1.7h5.2c-.9 1-1.5 1.7-2.1 2.4-2 2.3-4 4.5-6 6.8-1 1.1-1.3 2.5-.7 3.9.5 1.1 1.4 1.6 2.6 1.6h12.9c.8 0 1.1-.2 1.1-1 0-2.1-1.2-3.4-3.3-3.4-2-.1-4.1-.1-6.6-.1zm-8-4.6V430c0-2.6-.4-3-3.1-3h-.9c-1.1-.2-1.4.4-1.4 1.4.1 4.6.1 9.2 0 13.8-.1 4.1.6 4 4.3 4 .9 0 1.1-.3 1.1-1.2v-7.9zm.1-14.6c0-1.5-1.2-2.7-2.8-2.7-1.5 0-2.8 1.3-2.8 2.8 0 1.5 1.3 2.7 2.8 2.7 1.6-.1 2.8-1.3 2.8-2.8z" fill="#E5614F"/><path d="M1021 436.6c0 3.6-2.8 6.2-5.8 5.3-2.1-.6-3.3-2.7-3.2-5.5.1-2.6 1.4-4.7 3.4-5.2 2.9-.8 5.6 1.8 5.6 5.4z" fill="#E5614F"/><path d="M1200 45c0 18.8-15 34-33.5 34S1133 63.8 1133 45s15-34 33.5-34 33.5 15.2 33.5 34z" fill="#fff" filter="url(#filter5_dd)"/><path d="M1170 46.1c-.3 1.3-.6 2.5-.8 3.7 0 .2-.2.2-.3.3-1.6.5-3.3.8-5 .9-1.3 0-2.6 0-3.9-.4-2.6-.7-4.2-2.5-4.6-5-1-5.4.3-10.3 4.5-14 2.6-2.3 5.6-3 9-2.2 3.3.8 4.9 3.6 3.9 6.9-.7 2.3-2.3 3.6-4.4 4.5-1.8.7-3.7 1-5.5 1.2-.9.1-1.9.1-2.8.1-.3 0-.3.1-.3.3 0 .8 0 1.7.2 2.5.5 1.8 2 2.9 4 2.9s3.9-.6 5.8-1.4c.1 0 .2-.1.3-.1-.2-.2-.1-.2-.1-.2zm-8.4-7.7c.4 0 1-.1 1.5-.1 1.3-.2 2.5-.4 3.6-1.1.8-.5 1.5-1.1 1.7-2.1.3-1.3-.3-2.3-1.5-2.6-.6-.1-1.2-.1-1.8 0-2.8.8-4.2 2.9-4.9 5.6-.1.2 0 .3.3.3h1.1zm-11.5-4.9h-2.3c-.2 0-.3 0-.4-.3-.3-1.1-.5-2.1-.8-3.2h8.4c-.2 1.1-.5 2.1-.7 3.2-1 4.7-2.1 9.4-3.1 14.1-.4 2-.8 4-1.6 6-.8 2.2-2.6 3.3-4.9 3.6-1.5.2-2.9 0-4.4-.3-.2 0-.4-.1-.3-.4.3-.9.6-1.9.8-2.8.1-.2.1-.3.4-.2.7.2 1.4.3 2.2.2 1.2-.1 1.9-.9 2.4-1.9.5-1 .7-2.1.9-3.2 1.1-4.9 2.2-9.7 3.3-14.6 0-.1 0-.1.1-.2zm29.8 13.5c-.6 1.2-.5 2.3.2 3.4-.5.3-1 .4-1.5.4-.9.1-1.8.1-2.6-.1-1.8-.4-2.9-1.9-3-3.9-.1-1.2.2-2.4.4-3.6l3.9-18c.1-.2.1-.3.3-.3h3.4c-.3 1.5-.6 2.9-.9 4.3-.1.4 0 .4.3.4h4.6c0 .5-.2.9-.2 1.3-.1.6-.3 1.2-.4 1.9-.1.3-.2.5-.5.4h-4.1c-.4 0-.5.1-.6.5-.7 3.4-1.4 6.9-2.2 10.3-.2.7-.2 1.4-.1 2.2.2.9.8 1.3 1.7 1.2.5 0 .9-.2 1.3-.4z" fill="#3B3B49"/><path d="M1182.5 51c-1.4 0-2.5-1.1-2.5-2.5s1.1-2.5 2.5-2.5 2.5 1.1 2.5 2.5-1.1 2.5-2.5 2.5zm-21.1 5c-.1.5-.3 1.1-.4 1.7.6-.3 1.1-.4 1.7-.3.8.1 1.3.4 1.3 1 .1.6-.1 1.2-.4 1.8-.5.8-2.1 1.1-3.1.6-.4-.2-.5-.5-.5-.9 0-.8.3-1.6.5-2.4.1-.4.2-.8.3-1.1 0-.4.2-.5.6-.4zm2.1 2.8c0-.5-.1-.7-.4-.9-.6-.3-1.8-.1-2.1.4-.4.5-.5 1.1-.4 1.7 0 .2.1.4.3.5.7.4 1.9.1 2.3-.5.1-.4.2-.9.3-1.2zm-8.1 1.8c0 .2-.1.4-.3.4h-1.2c-.5-.1-.8-.5-.9-1.1 0-.7.1-1.4.4-2 .4-.8 1.5-1.1 2.2-.7.3.2.4.5.4.8 0 .5-.2.9-.6 1.1-.5.2-.9.1-1.4.2-.2 0-.5-.2-.5.2-.1.5.1.9.4 1 .3.1.6.1.9.1h.6zm-1.9-1.7c.5 0 1 .1 1.6-.1.3-.1.5-.5.5-.9s-.3-.5-.6-.5c-.8-.1-1.3.4-1.5 1.5zm28.9 1.7c0 .2-.1.4-.3.4-.4 0-.8.1-1.2 0-.6-.2-.9-.5-.9-1.2s.1-1.3.4-1.9c.4-.8 1.6-1.1 2.3-.6.3.2.3.6.3 1-.1.5-.3.8-.7.9-.4.1-.8.1-1.3.1-.2 0-.5-.2-.6.2-.1.5.1.9.5 1 .4.1.8.1 1.2.1h.3zm-1.8-1.7c.5 0 1 .1 1.6-.1.3-.1.5-.5.5-.8 0-.4-.3-.5-.6-.5-.9-.2-1.4.3-1.5 1.4zm-3.1-1.9c1.2 0 1.7.5 1.5 1.6-.1.7-.3 1.4-.4 2.2 0 .2-.2.3-.4.2-.3 0-.2-.2-.1-.3.1-.7.3-1.4.4-2 .2-.7 0-1.1-.5-1.2-.8-.1-1.5-.1-1.8.7-.2.5-.2.9-.3 1.4l-.3 1.2c0 .2-.2.3-.4.2-.3 0-.1-.2-.1-.3.2-.8.3-1.5.5-2.3.2-1 .7-1.4 1.9-1.4zm-11.3 4c-.2 0-.3 0-.5-.1-.4-.2-.7-.5-.7-1 0-.9.3-1.8.4-2.7 0-.2.2-.2.3-.2.2 0 .1.2.1.3-.1.8-.3 1.5-.4 2.3-.1.6.1.9.6 1 .7 0 1-.2 1.2-1 .1-.7.2-1.5.4-2.2 0-.2.1-.4.3-.3.3.1.1.3.1.4-.1.7-.2 1.5-.4 2.2-.2.9-.6 1.3-1.4 1.3zm18.7 0h-.6c-.1 0-.3.1-.2-.2 0-.1.1-.3.2-.3h1.5c.3-.1.6-.2.6-.6 0-.5-.2-.6-.5-.7-.2-.1-.5-.1-.7-.2-.3-.1-.6-.3-.6-.8s.2-.9.6-1.1c.3-.1.6-.1.9-.1h.8c.1 0 .3-.1.2.1 0 .2-.1.3-.3.3h-1.1c-.2 0-.3 0-.5.1s-.3.3-.3.6.2.4.3.4l.9.3c.5.2.6.5.6.9 0 .6-.3.9-.7 1.1-.1 0-.2.1-.3.1-.3.1-.6.1-.8.1zm2.1 0c0-.3.2-.4.5-.4h1.4c.3 0 .5 0 .7-.1.3-.1.4-.3.4-.6s-.2-.4-.4-.5l-1.2-.3c-.7-.2-.9-.4-.9-.9s.3-.9.9-1.1c.8-.2 1.6-.1 2.4-.1.1 0 .2 0 .2.1-.1.1-.1.3-.3.3h-1.4c-.2 0-.4 0-.6.1-.3.1-.5.3-.5.6s.2.4.5.5l1.2.3c.7.2.9.5.9.9 0 .6-.4 1-1 1.1-.4.1-.8.1-1.3.1h-1.5zm-18 0c0-.4.2-.4.5-.4h1.4c.2 0 .5 0 .7-.1.3-.1.5-.3.5-.6s-.2-.4-.5-.5l-1.2-.3c-.6-.2-.8-.4-.8-.9s.3-.9.9-1.1c.8-.2 1.6-.1 2.4-.1.1 0 .2 0 .2.1-.1.2-.1.3-.4.3h-1.5c-.2 0-.5 0-.7.1-.3.1-.4.3-.4.6s.2.4.5.4l1.2.3c.6.2.9.5.9.9 0 .6-.4 1-1 1.1-1 .3-1.8.2-2.7.2zm6-3.8l-1.2 3.6c-.1.2-.3.3-.6.2-.4 0-.2-.2-.2-.3.3-1.1.7-2.3 1.1-3.4 0-.1 0-.3.4-.3.3 0 .6 0 .5.2z" fill="#E02F34"/><path d="M998.5 206c18.5 0 33.5-14.8 33.5-33s-15-33-33.5-33-33.5 14.8-33.5 33 15 33 33.5 33z" fill="#A2DBEB"/><path d="M1128 337.5c0 18.5-15.2 33.5-34 33.5s-34-15-34-33.5 15.2-33.5 34-33.5 34 15 34 33.5z" fill="#fff" filter="url(#filter6_dd)"/><path d="M1106.5 322l1.5-7-8 2.7 6.5 4.3z" fill="#49BBBE"/><path d="M1096.4 336.4c.7-1 1.6-2.5 1.6-4.5 0-3-1.8-4.9-4.6-4.9-1.3 0-2.3.1-3.5.7l.7 1.5c1-.6 1.8-.7 2.9-.7 1.8 0 2.9 1.3 2.9 3.3 0 1.3-.7 2.7-1.3 3.4l-6 8.2c-.1.1-.1.4-.1.6 0 .6.4 1 1 1h7.2v-1.6h-5.9l5.1-7zm-17.8-3.6c-.4 0-.7 0-1.1.1v1.6c.4-.1.7-.1 1.1-.1 1.7 0 2.9 1 2.9 2.9v4.2c0 1.7-1 2.9-2.9 2.9-1 0-2-.1-2.9-.4v-15h-1.7v15.3c0 .4.3 1 .9 1.2 1.1.4 2.4.6 3.7.6 2.7 0 4.4-1.9 4.4-4.6v-4.1c.1-2.9-1.6-4.6-4.4-4.6zm29.5 0c-.5 0-.8 0-1.3.1v1.6c.5-.1.8-.1 1.3-.1 1.9 0 3.2 1 3.2 2.9v4.2c0 1.7-1.1 2.9-3.2 2.9-1.1 0-2.2-.1-3.2-.4v-15h-1.9v15.3c0 .4.3 1 .9 1.2 1.3.4 2.7.6 4.1.6 3 0 4.9-1.9 4.9-4.6v-4.1c.1-2.9-1.8-4.6-4.8-4.6z" fill="#575756"/><path d="M1108 315.2l-19-4.2 10.7 7 8.3-2.8z" fill="#00546B"/><path d="M1088 321l12-3.5-11.1-6.5-.9 10z" fill="#1D8E93"/><path d="M1099.4 318l-11.2 3.4-.3 3.2 17 1.4 1-3.9-6.5-4.1zm-10.4-7l-15 6.2 14.1 3.8.9-10z" fill="#86CCD1"/><path d="M1107 322l-1 4.3 13 3.7-12-8zm-38 5l18.7-2.5.3-3.5-19 6z" fill="#1D8E93"/><path d="M1088 320.9l-13.7-3.9-5.3 10 19-6.1z" fill="#00546B"/><path d="M1119 330l-11.3-15-1.7 7.1 13 7.9z" fill="#ABD9D7"/><path d="M1087.8 352l10.4 2 1.7-4.1-14-1.9 1.9 4z" fill="#D978AE"/><path d="M1088 352l-19-3 9.8 10 9.2-6.8v-.2z" fill="#C7328A"/><path d="M1086.1 348l-17.1.7 19 3.3-1.9-4z" fill="#ECA3C8"/><path d="M1100 350.4l10.9 6.6 7.1-8-18 1.4z" fill="#C7328A"/><path d="M1093 364l17-7.9-12.2-2.1-4.8 10zm-15-4.8l15 4.8-5.8-12-9.2 7.2z" fill="#92134D"/><path d="M1098 354.5l12 2.5-10.3-7-1.7 4.5z" fill="#37122E"/><path d="M1088 352v.1l5.5 11.9 4.5-10.1-10-1.9z" fill="#670F32"/><path d="M998.4 206.6c18.45 0 33.4-14.954 33.4-33.4 0-18.446-14.95-33.4-33.4-33.4-18.446 0-33.4 14.954-33.4 33.4 0 18.446 14.954 33.4 33.4 33.4z" fill="#3E6EB5" filter="url(#filter7_dd)"/><path d="M1021.6 150.2s-.7 1.7-2.7 1.7h-8.3c-7.1 0-8.4 6-8.4 6l-3 15.6h4.6c6.6 0 6.4 4.7 6.4 4.7l-.2 2.6s-.3-2.6-4.7-2.6c-3.5 0-5.5 1.1-5.5 1.1s-1.4.8-1.9 2.6c-.2 1-2.5 12.9-2.5 12.9s-.7 2.8 1.8 3.8c1.8.8 5 1 5 1h-14.9c-7.5 0-8.1-5.7-7.8-7.3.2-1.2.8-3.8 1-4.5 1.9-7.4 17.9-9.6 17.9-9.6s-16.4 1.6-17.4 1.7c-12.7 1.4-13.7-6.7-13.7-6.7H983l3.8-14.2s2.8-8.9 11.8-8.9c1.9.1 23 .1 23 .1z" fill="#fff"/><path opacity=".28" d="M999.6 163.1l-2.4.7-.1-3 2.5 2.3z" fill="#fff"/><path opacity=".28" d="M997.199 160.7l-4.5 6.5 4.6-3.5-.1-3z" fill="#fff"/><path opacity=".28" d="M997.199 160.7l-4.5 2.3v4.2l4.5-6.5z" fill="#fff"/><path opacity=".28" d="M992.7 163.1l-4.7 5.1 4.7-.9v-4.2z" fill="#fff"/><path opacity=".22" d="M988 168.2l-1.5-4.5 5-4.1-3.5 8.6z" fill="#fff"/><path opacity=".13" d="M986.5 163.6l1.1-2.6 4-1.6-5.1 4.2z" fill="#fff"/><path opacity=".28" d="M999.299 165.5l-2.1-1.8 2.4-.7-.3 2.5z" fill="#fff"/><path opacity=".53" d="M999.3 165.5l-3.3 1.9 1.3-3.7 2 1.8zm-2.1-1.7l-4.6 3.5 3.3.2 1.3-3.7z" fill="#fff"/><path opacity=".53" d="M999.299 165.5l-1 5.4-2.4-3.4 3.4-2z" fill="#fff"/><path opacity=".53" d="M998.299 170.9l-3.1.2.7-3.6 2.4 3.4z" fill="#fff"/><path opacity=".53" d="M995.899 167.5l-4 2.7 3.3 1 .7-3.7zm-3.3-.3l-.7 2.9 4-2.7-3.3-.2z" fill="#fff"/><path opacity=".53" d="M992.6 167.2l-4.8 3.4 4.1-.4.7-3z" fill="#fff"/><path opacity=".38" d="M992.6 167.2l-4.7.9-.1 2.4 4.8-3.3z" fill="#fff"/><path opacity=".53" d="M998.3 170.9l-6.2 4 5.1-.1 1.1-3.9z" fill="#fff"/><path opacity=".53" d="M998.3 170.9l-3.1.2-3.1 3.8 6.2-4zm-3.101.2l-3.1 3.8-.2-4.8 3.3 1z" fill="#fff"/><path opacity=".53" d="M991.899 170.1l-5 4.9 5.2-.1-.2-4.8zm0 0l-4.1.4-.9 4.4 5-4.8z" fill="#fff"/><path opacity=".25" d="M983.899 169.8l-.2.7h4.1l.2-2.4-4.1 1.7z" fill="#fff"/><path opacity=".3" d="M1006.9 174.4l-3.2 3.2 3.4.8-.2-4z" fill="#fff"/><path opacity=".38" d="M1006.9 174.4l-3.2-.4v3.6l3.2-3.2z" fill="#fff"/><path opacity=".53" d="M1003.8 174l-3.3 2.1-1.301-2.7 4.601.6zm-4.6-.5l-2.1 1.2 3.3 1.4-1.2-2.6zm-2.001 1.3l-1.5 3.5 4.801-2.1-3.301-1.4z" fill="#fff"/><path opacity=".5" d="M992.099 174.9l-5.2.1.9 3.7 4.3-3.8z" fill="#fff"/><path opacity=".53" d="M987.799 170.6l-6.1 3.7 5.2.7.9-4.4zm16.001 3.4l-3.3 2.1 3.3 1.4V174zm-6.7 11.7l-4.5 2.2.1 4.3 4.4-6.5z" fill="#fff"/><path opacity=".49" d="M997.099 185.7l-5.4-1.2.9 3.4 4.5-2.2z" fill="#fff"/><path opacity=".48" d="M996.799 180.6l-5.1 3.9 5.5 1.2-.4-5.1z" fill="#fff"/><path opacity=".66" d="M996.699 180.6l-5.3 1.7.3 2.1 5-3.8z" fill="#fff"/><path opacity=".53" d="M986.899 175l-4.4 2.3-.8-3 5.2.7z" fill="#fff"/><path opacity=".46" d="M986.9 175l-4.4 2.3 5.3 1.5c-.1-.8-.9-3.8-.9-3.8z" fill="#fff"/><path opacity=".53" d="M981.699 174.3l-3 3.5 3.8-.5-.8-3z" fill="#fff"/><path opacity=".5" d="M988 182.1l-.3 3.7h-4.6l4.9-3.7z" fill="#fff"/><path opacity=".53" d="M987.999 182.1l3.5.2-3.8 3.4.3-3.6zm3.401.3l.3 2.1-4.1 1.3 3.8-3.4zm-8.3 3.4l.1 2.5 4.5-2.5h-4.6z" fill="#fff"/><path opacity=".53" d="M981 186.8c-.4.7-.5 1.2-.5 1.4l2.8.1-.1-2.5-2.2 1z" fill="#fff"/><path opacity=".53" d="M987.6 185.8l-4.5 2.5 3.3.2 1.2-2.7z" fill="#fff"/><path opacity=".4" d="M983.199 188.3v4.3l3.3-4.1-3.3-.2z" fill="#fff"/><path opacity=".44" d="M986.499 188.4l-3.3 4.2 4.8.4-1.5-4.6z" fill="#fff"/><path opacity=".53" d="M987.599 185.8l-1.2 2.7 5.2-4-4 1.3zm4.101-1.3l-3.7 8.6-1.5-4.6 5.2-4z" fill="#fff"/><path opacity=".53" d="M988 193l4.6-5.2-.9-3.4-3.7 8.6zm4.6-5.1l-4.6 5.2 4.6-.9v-4.3z" fill="#fff"/><path opacity=".61" d="M983.2 192.6l-1.1 2.9 5.9-2.5-4.8-.4z" fill="#fff"/><path opacity=".4" d="M988 193v2.5h-5.9l5.9-2.5z" fill="#fff"/><path opacity=".48" d="M992.6 192.2l-4.6 3.3V193l4.6-.8z" fill="#fff"/><path opacity=".78" d="M992.6 192.2l-.5 3-4.1.4 4.6-3.4z" fill="#fff"/><path opacity=".83" d="M995.9 192.4l-3.2-.2-.6 3 3.8-2.8z" fill="#fff"/><path opacity=".72" d="M992.1 195.1l-5 4.6.9-4.2 4.1-.4z" fill="#fff"/><path opacity=".53" d="M992 195.1l3.1 1-3.1 3.7v-4.7z" fill="#fff"/><path opacity=".13" d="M1000.7 159.7l-3.501 1.1 2-2.4 1.501 1.3zm-3.801-3.9l.3 4.9 2-2.4-2.3-2.5z" fill="#fff"/><path opacity=".13" d="M996.9 155.8l-5.3 3.7 5.6 1.2-.3-4.9z" fill="#fff"/><path opacity=".13" d="M996.9 155.8l-5.3 1.6.1 2.1 5.2-3.7z" fill="#fff"/><path opacity=".08" d="M996.9 155.8l-3.9-1.7-1.4 3.3 5.3-1.6z" fill="#fff"/><path opacity=".1" d="M992.899 154.1l2.8-.7 1.1 2.4-3.9-1.7z" fill="#fff"/><path opacity=".13" d="M1003.6 152.8l-3.2-1.5-.9 3.5 4.1-2z" fill="#fff"/><path opacity=".13" d="M1000.4 151.3l-3.6 4.5 2.7-1 .9-3.5z" fill="#fff"/><path opacity=".1" d="M1000.5 151.3l-4.7 2.1 1.1 2.4 3.6-4.5z" fill="#fff"/><path opacity=".08" d="M1000.5 151.3l-2.4-1.1c-.3 0-.7 0-1 .1l-1.3 3.1 4.7-2.1z" fill="#fff"/><path opacity=".06" d="M997.2 149.8l-4.3 4.3 2.8-.7 1.5-3.6z" fill="#fff"/><path opacity=".09" d="M992.9 154.1l-1.4 3.3-3.4-.2 4.8-3.1z" fill="#fff"/><path opacity=".07" d="M991.5 157.4l-3.9 3.6.5-3.9 3.4.3z" fill="#fff"/><path opacity=".13" d="M991.6 159.5l-4 1.6 3.9-3.6.1 2z" fill="#fff"/><path opacity=".28" d="M1000.7 159.7l-3.501 1.1 2.5 2.4 1.001-3.5z" fill="#fff"/><path opacity=".13" d="M997.2 160.7l-4.5 2.3-1.1-3.6 5.6 1.3z" fill="#fff"/><path opacity=".21" d="M992.7 163.1l-4.7 5.1 3.6-8.6 1.1 3.5z" fill="#fff"/><path opacity=".33" d="M977.3 174l1.4 3.8 3-3.5-4.4-.3z" fill="#fff"/><path opacity=".53" d="M981 186.8l2.1-1h-1.5c-.3.4-.5.7-.6 1z" fill="#fff"/><path opacity=".53" d="M982.1 185.1c-.2.2-.4.5-.6.8h1.5l-.4-1.4c-.1.2-.3.4-.5.6zm.599-.6l.4 1.4 4.9-3.7-1.5-.1c-1.4.6-2.8 1.4-3.8 2.4zm5.201-5.1v-.7l-1.8.9c.5-.1 1.1-.1 1.8-.2zm-1.5 2.6l1.5.1v-.9c-.5.3-1 .5-1.5.8z" fill="#fff"/><path opacity=".53" d="M991.6 179l-3.8-.3v.7c1.3-.1 2.5-.2 3.8-.4zm-3.7 2.3v.9l3.4-2.1c-1.1.3-2.3.7-3.4 1.2z" fill="#fff"/><path opacity=".53" d="M991.299 180l-3.4 2.1 3.5.3 1.1-2.7-1.2.3z" fill="#fff"/><path opacity=".53" d="M992.499 179.7l-1.1 2.7 5.3-1.7-3.4-1.2c-.2 0-.4.1-.8.2zm3.401-1.1l-.2-.4-1.8.5c.7 0 1.4 0 2-.1zm-2.6.8l3.4 1.2-.8-1.8c-.7.2-1.6.4-2.6.6z" fill="#fff"/><path opacity=".53" d="M995.699 178.3l.2.4c1.5-.2 2.5-.2 2.5-.2s-.9.1-2.4.4l.8 1.8 3.701-4.5-4.801 2.1z" fill="#fff"/><path opacity=".53" d="M993.9 178.8l1.8-.5 1.5-3.5-4.2 4.2c.3-.1.6-.2.9-.2z" fill="#fff"/><path opacity=".46" d="M993 178.9l4.2-4.2-5.1.1.6 4 .3.1zm-.3 0l-.6-4-4.3 3.8 3.9.3c.4 0 .7 0 1-.1z" fill="#fff"/><path opacity=".53" d="M982.199 179.9c.7-.1 2.1-.2 3.8-.4 0 0 1.8-.9 1.9-.9-.4-.1-5.3-1.5-5.3-1.5l-.4 2.8z" fill="#fff"/><path opacity=".53" d="M982.199 179.9l.3-2.7-2.3 2.9c.7 0 1.3-.1 2-.2z" fill="#fff"/><path opacity=".53" d="M980.3 180.1l2.3-2.9c.1 0-3.8.5-3.8.5l.1 2.4c.4.1.9.1 1.4 0zm-6.501-.4l2.5.4c.7.1 1.6.1 2.5.1l-.1-2.4-5.5 1.8c.2 0 .4 0 .6.1z" fill="#fff"/><path opacity=".14" d="M972.999 179.4l4.3-5.5-4-.5-.6 5.9c.1.1.2.1.3.1z" fill="#fff"/><path opacity=".3" d="M973.4 179.6l5.3-1.8-1.4-3.8-4.3 5.5c.1 0 .3 0 .4.1z" fill="#fff"/><path opacity=".53" d="M983.7 170.6l-.7 2.8h-1.1l-.1.9 6.1-3.7h-4.2z" fill="#fff"/><path opacity=".73" d="M979.499 192.2c0 .1 0 .2-.1.3-.1.5-.1 1.6.3 2.7l3.4-2.6-3.6-.4z" fill="#fff"/><path opacity=".44" d="M983.2 192.6l-3.4 2.7c.1.2.2.4.3.7l2.1-.4 1-3z" fill="#fff"/><path opacity=".51" d="M980 195.9c.1.3.3.5.4.8l1.7-1.2-2.1.4z" fill="#fff"/><path opacity=".32" d="M980.5 196.7c.4.6.9 1.2 1.6 1.7l.1-2.8-1.7 1.1z" fill="#fff"/><path opacity=".6" d="M982.1 195.5l-.1 2.8c.2.2.5.3.8.5l5.2-3.3h-5.9z" fill="#fff"/><path opacity=".68" d="M983.2 188.3l-3.4 2.9c-.1.4-.2.7-.2 1l3.6.4v-4.3z" fill="#fff"/><path opacity=".59" d="M980.399 188.2c-.1.6-.5 1.9-.7 3l3.4-2.9-2.7-.1z" fill="#fff"/><path opacity=".16" d="M1007.2 178.4l1.7-3.2c-.2-.2-.4-.3-.6-.5l-1.4-.3.3 4z" fill="#fff"/><path opacity=".53" d="M1000.5 176.2l-1.101 3.5c.2-.2.3-.2.3-.2s.601-.3 1.701-.6l2.3-1.2-3.2-1.5z" fill="#fff"/><path opacity=".53" d="M999.1 179.9c.1-.1.2-.2.4-.3l1-3.5-3.7 4.4 2.3-.6z" fill="#fff"/><path opacity=".47" d="M984.399 167.9l3.6.2-1.5-4.5-1.4 1.7-.7 2.6z" fill="#fff"/><path opacity=".55" d="M999.199 172.1l-.9-1.2-1.1 3.9 2.1-1.2-.1-1.5z" fill="#fff"/><path d="M999.599 169.9l-.4-4.4-1 5.4 1.1 1.6.3-2.6zm.701-3l-1-1.4.4 5.2.6-3.8z" fill="#fff"/><path opacity=".25" d="M1000.6 166l-1.3-.4 1.1 1.5.2-1.1z" fill="#fff"/><path opacity=".35" d="M1000.9 164.4l-1.6 1.1 1.4.5.2-1.6z" fill="#fff"/><path opacity=".49" d="M1001.1 163.2l-1.401-.1-.3 2.4 1.701-1.1v-1.2z" fill="#fff"/><path opacity=".22" d="M1002.3 157.6l-3.101.8 1.501 1.4 1.3-1c.1-.5.2-.9.3-1.2z" fill="#fff"/><path opacity=".83" d="M1003.8 174l-.2-.5h-4.3l4.5.5z" fill="#fff"/><path opacity=".87" d="M1003.8 174l.4-.5h-.6l.2.5z" fill="#fff"/><path opacity=".38" d="M1007.2 178.4c-.1 0 2.9-.9 2.9-.9s.1.5.1 1c0 .2-.2 2.3-.2 2.3s-.3-1.9-2.8-2.4z" fill="#fff"/><path opacity=".05" d="M971.9 179l-3.1-3.1-.2.5c.3.3 1.3 1.7 3.3 2.6z" fill="#fff"/><path opacity=".39" d="M1001.7 160.1l-1-.4-1.1 3.4 1.6-.9.5-2.1z" fill="#fff"/><path opacity=".55" d="M1001.7 160.1l.3-1.5-1.3 1 1 .5z" fill="#fff"/><path opacity=".85" d="M1001.1 163.2l.2-1-1.601.9 1.401.1z" fill="#fff"/><path d="M1003.7 150.2l2.6 2.6 4.8-2.6h-7.4z" fill="#fff"/><path d="M1014.9 151.8l3.4-1.6h-7.4l1.3 1.6h2.7z" fill="#fff"/><path opacity=".36" d="M992.099 195.1l-4.9 4.5h4.8l.1-4.5z" fill="#fff"/><path d="M456 116h286c5.5 0 10 4.5 10 10v286c0 5.5-4.5 10-10 10H456c-5.5 0-10-4.5-10-10V126c0-5.5 4.5-10 10-10z" fill="#fff" filter="url(#filter8_ddd)"/><path d="M580.2 301.9h-5.8s-.1-54.9-.1-63.3c0-1.9.6-2.6 2.5-2.5 3.2.1 5.8 1 7.3 3.9 10.5-8.4 25.5-5.4 33.2 3.5 8 9.2 8.4 22.6.8 32.2-7.2 9.1-21.2 13.2-33 5.3v15.9c.1 2.8-2.2 5-4.9 5zm18.2-27.5c8.1.1 14.5-6.4 14.5-14.4 0-7.8-6.5-14.3-14.2-14.3-8.1-.1-14.6 6.4-14.6 14.3 0 8 6.4 14.4 14.3 14.4z" fill="#244785"/><path d="M661.8 240c1.8-3.2 4.6-4 7.9-3.9 1.4 0 1.9.4 1.8 1.8-.1 4.5 0 9.2 0 13.7v30.1c0 1.7-.3 2.5-2.3 2.4-3.2-.1-5.8-1-7.6-4-6.2 5-13.2 6.1-20.6 4.3-5.9-1.4-10.5-4.9-14.1-9.7-7-9.5-6-23.2 2.4-32 7.9-8.3 22.2-10.9 32.5-2.7zm-14.5 34.4c8.1.1 14.5-6.2 14.5-14.3 0-7.8-6.3-14.3-14.1-14.3-8-.1-14.5 6.2-14.7 14.1-.1 7.9 6.3 14.5 14.3 14.5zM561 240c1.8-3.2 4.6-4 8-4 1.4 0 1.8.5 1.8 1.8-.1 4.5-.1 33.7 0 43.8 0 1.8-.3 2.5-2.3 2.4-3.2-.1-5.8-1-7.6-4-6.1 5-13.1 6.1-20.6 4.4-5.9-1.4-10.5-4.9-14.1-9.7-7-9.5-6-23.2 2.4-32 7.8-8.3 22.1-10.9 32.4-2.7zm-14.5 34.4c8.1.1 14.5-6.2 14.5-14.3 0-7.8-6.3-14.3-14.1-14.3-8-.1-14.5 6.2-14.7 14.1 0 7.9 6.3 14.5 14.3 14.5z" fill="#244785"/><path d="M679.9 300.9c2.1-4.8 5-11.2 6.4-14.4 1.4-3.2 1.4-5.6-.1-8.6-5.9-13.2-11.7-26.4-17.4-39.6-.2-.6.4-2.2.4-2.2h2.5c8.5 0 7.7-.2 11 7.3 3.8 8.4 7.3 16.7 11.2 25.5 2.2-4.9 4.2-9.5 6.2-14.1 1.7-3.8 4.7-11 6.5-15.2.9-2.1 3-3.4 5.2-3.4h8s-18.2 41.9-26.8 61.4c-2.3 5.7-7.4 7.1-13.1 3.3zm-189.8 0c2.1-4.8 5-11.1 6.4-14.4 1.4-3.3 1.4-5.6-.1-8.6C490.6 264.8 478 236 478 236h3.7c8.5 0 8-.2 11.3 7.4 3.8 8.4 7.3 16.7 11.2 25.5 2.2-4.9 4.2-9.5 6.2-14.1 1.7-3.8 4.7-11 6.5-15.2.9-2.1 3-3.4 5.2-3.4h8s-18.2 41.9-26.8 61.4c-2.5 5.7-7.5 7.1-13.2 3.3z" fill="#244785"/><circle cx="951.5" cy="321.5" r="3" fill="#fff" stroke="#013D80"/><circle cx="968.5" cy="403.5" r="3" fill="#fff" stroke="#013D80"/><circle cx="894.5" cy="432.5" r="3" fill="#fff" stroke="#E5614F"/><circle cx="952.5" cy="220.5" r="3" fill="#fff" stroke="#3E6EB5"/><circle cx="1101.5" cy="108.5" r="3" fill="#fff" stroke="#013D80"/><circle cx="936.5" cy="84.5" r="3" fill="#fff" stroke="#013D80"/><circle cx="303.5" cy="92.5" r="3" fill="#fff" stroke="#013D80"/><circle cx="226.5" cy="121.5" r="3" fill="#fff" stroke="#013D80"/><circle cx="231.5" cy="235.5" r="3" fill="#fff" stroke="#013D80"/><circle cx="90.5" cy="235.5" r="3" fill="#fff" stroke="#013D80"/><circle cx="114.5" cy="373.5" r="3" fill="#fff" stroke="#013D80"/><circle cx="290.5" cy="415.5" r="3" fill="#fff" stroke="#0098FF"/><defs><filter id="filter0_dd" x="0" y="371" width="93" height="92" filterUnits="userSpaceOnUse" color-interpolation-filters="sRGB"><feFlood flood-opacity="0" result="BackgroundImageFix"/><feColorMatrix in="SourceAlpha" values="0 0 0 0 0 0 0 0 0 0 0 0 0 0 0 0 0 0 127 0"/><feOffset dx="-4" dy="-3"/><feGaussianBlur stdDeviation="4"/><feColorMatrix values="0 0 0 0 0 0 0 0 0 0 0 0 0 0 0 0 0 0 0.1 0"/><feBlend in2="BackgroundImageFix" result="effect1_dropShadow"/><feColorMatrix in="SourceAlpha" values="0 0 0 0 0 0 0 0 0 0 0 0 0 0 0 0 0 0 127 0"/><feOffset dx="4" dy="4"/><feGaussianBlur stdDeviation="5"/><feColorMatrix values="0 0 0 0 0 0 0 0 0 0 0 0 0 0 0 0 0 0 0.1 0"/><feBlend in2="effect1_dropShadow" result="effect2_dropShadow"/><feBlend in="SourceGraphic" in2="effect2_dropShadow" result="shape"/></filter><filter id="filter1_dd" x="133" y="44" width="93" height="92" filterUnits="userSpaceOnUse" color-interpolation-filters="sRGB"><feFlood flood-opacity="0" result="BackgroundImageFix"/><feColorMatrix in="SourceAlpha" values="0 0 0 0 0 0 0 0 0 0 0 0 0 0 0 0 0 0 127 0"/><feOffset dx="-4" dy="-3"/><feGaussianBlur stdDeviation="4"/><feColorMatrix values="0 0 0 0 0 0 0 0 0 0 0 0 0 0 0 0 0 0 0.1 0"/><feBlend in2="BackgroundImageFix" result="effect1_dropShadow"/><feColorMatrix in="SourceAlpha" values="0 0 0 0 0 0 0 0 0 0 0 0 0 0 0 0 0 0 127 0"/><feOffset dx="4" dy="4"/><feGaussianBlur stdDeviation="5"/><feColorMatrix values="0 0 0 0 0 0 0 0 0 0 0 0 0 0 0 0 0 0 0.1 0"/><feBlend in2="effect1_dropShadow" result="effect2_dropShadow"/><feBlend in="SourceGraphic" in2="effect2_dropShadow" result="shape"/></filter><filter id="filter2_dd" x="80" y="138" width="93" height="92" filterUnits="userSpaceOnUse" color-interpolation-filters="sRGB"><feFlood flood-opacity="0" result="BackgroundImageFix"/><feColorMatrix in="SourceAlpha" values="0 0 0 0 0 0 0 0 0 0 0 0 0 0 0 0 0 0 127 0"/><feOffset dx="4" dy="4"/><feGaussianBlur stdDeviation="5"/><feColorMatrix values="0 0 0 0 0 0 0 0 0 0 0 0 0 0 0 0 0 0 0.1 0"/><feBlend in2="BackgroundImageFix" result="effect1_dropShadow"/><feColorMatrix in="SourceAlpha" values="0 0 0 0 0 0 0 0 0 0 0 0 0 0 0 0 0 0 127 0"/><feOffset dx="-4" dy="-3"/><feGaussianBlur stdDeviation="4"/><feColorMatrix values="0 0 0 0 0 0 0 0 0 0 0 0 0 0 0 0 0 0 0.1 0"/><feBlend in2="effect1_dropShadow" result="effect2_dropShadow"/><feBlend in="SourceGraphic" in2="effect2_dropShadow" result="shape"/></filter><filter id="filter3_dd" x="106" y="250" width="93" height="92" filterUnits="userSpaceOnUse" color-interpolation-filters="sRGB"><feFlood flood-opacity="0" result="BackgroundImageFix"/><feColorMatrix in="SourceAlpha" values="0 0 0 0 0 0 0 0 0 0 0 0 0 0 0 0 0 0 127 0"/><feOffset dx="4" dy="4"/><feGaussianBlur stdDeviation="5"/><feColorMatrix values="0 0 0 0 0 0 0 0 0 0 0 0 0 0 0 0 0 0 0.1 0"/><feBlend in2="BackgroundImageFix" result="effect1_dropShadow"/><feColorMatrix in="SourceAlpha" values="0 0 0 0 0 0 0 0 0 0 0 0 0 0 0 0 0 0 127 0"/><feOffset dx="-4" dy="-3"/><feGaussianBlur stdDeviation="4"/><feColorMatrix values="0 0 0 0 0 0 0 0 0 0 0 0 0 0 0 0 0 0 0.1 0"/><feBlend in2="effect1_dropShadow" result="effect2_dropShadow"/><feBlend in="SourceGraphic" in2="effect2_dropShadow" result="shape"/></filter><filter id="filter4_dd" x="981" y="388" width="93" height="92" filterUnits="userSpaceOnUse" color-interpolation-filters="sRGB"><feFlood flood-opacity="0" result="BackgroundImageFix"/><feColorMatrix in="SourceAlpha" values="0 0 0 0 0 0 0 0 0 0 0 0 0 0 0 0 0 0 127 0"/><feOffset dx="-4" dy="-3"/><feGaussianBlur stdDeviation="4"/><feColorMatrix values="0 0 0 0 0 0 0 0 0 0 0 0 0 0 0 0 0 0 0.1 0"/><feBlend in2="BackgroundImageFix" result="effect1_dropShadow"/><feColorMatrix in="SourceAlpha" values="0 0 0 0 0 0 0 0 0 0 0 0 0 0 0 0 0 0 127 0"/><feOffset dx="4" dy="4"/><feGaussianBlur stdDeviation="5"/><feColorMatrix values="0 0 0 0 0 0 0 0 0 0 0 0 0 0 0 0 0 0 0.1 0"/><feBlend in2="effect1_dropShadow" result="effect2_dropShadow"/><feBlend in="SourceGraphic" in2="effect2_dropShadow" result="shape"/></filter><filter id="filter5_dd" x="1121" y="0" width="89" height="89" filterUnits="userSpaceOnUse" color-interpolation-filters="sRGB"><feFlood flood-opacity="0" result="BackgroundImageFix"/><feColorMatrix in="SourceAlpha" values="0 0 0 0 0 0 0 0 0 0 0 0 0 0 0 0 0 0 127 0"/><feOffset dx="5" dy="5"/><feGaussianBlur stdDeviation="2.5"/><feColorMatrix values="0 0 0 0 0 0 0 0 0 0 0 0 0 0 0 0 0 0 0.05 0"/><feBlend in2="BackgroundImageFix" result="effect1_dropShadow"/><feColorMatrix in="SourceAlpha" values="0 0 0 0 0 0 0 0 0 0 0 0 0 0 0 0 0 0 127 0"/><feOffset dx="-4" dy="-3"/><feGaussianBlur stdDeviation="4"/><feColorMatrix values="0 0 0 0 0 0 0 0 0 0 0 0 0 0 0 0 0 0 0.1 0"/><feBlend in2="effect1_dropShadow" result="effect2_dropShadow"/><feBlend in="SourceGraphic" in2="effect2_dropShadow" result="shape"/></filter><filter id="filter6_dd" x="1048" y="293" width="94" height="92" filterUnits="userSpaceOnUse" color-interpolation-filters="sRGB"><feFlood flood-opacity="0" result="BackgroundImageFix"/><feColorMatrix in="SourceAlpha" values="0 0 0 0 0 0 0 0 0 0 0 0 0 0 0 0 0 0 127 0"/><feOffset dx="-4" dy="-3"/><feGaussianBlur stdDeviation="4"/><feColorMatrix values="0 0 0 0 0 0 0 0 0 0 0 0 0 0 0 0 0 0 0.1 0"/><feBlend in2="BackgroundImageFix" result="effect1_dropShadow"/><feColorMatrix in="SourceAlpha" values="0 0 0 0 0 0 0 0 0 0 0 0 0 0 0 0 0 0 127 0"/><feOffset dx="4" dy="4"/><feGaussianBlur stdDeviation="5"/><feColorMatrix values="0 0 0 0 0 0 0 0 0 0 0 0 0 0 0 0 0 0 0.1 0"/><feBlend in2="effect1_dropShadow" result="effect2_dropShadow"/><feBlend in="SourceGraphic" in2="effect2_dropShadow" result="shape"/></filter><filter id="filter7_dd" x="953" y="128.8" width="92.8" height="91.8" filterUnits="userSpaceOnUse" color-interpolation-filters="sRGB"><feFlood flood-opacity="0" result="BackgroundImageFix"/><feColorMatrix in="SourceAlpha" values="0 0 0 0 0 0 0 0 0 0 0 0 0 0 0 0 0 0 127 0"/><feOffset dx="4" dy="4"/><feGaussianBlur stdDeviation="5"/><feColorMatrix values="0 0 0 0 0 0 0 0 0 0 0 0 0 0 0 0 0 0 0.2 0"/><feBlend in2="BackgroundImageFix" result="effect1_dropShadow"/><feColorMatrix in="SourceAlpha" values="0 0 0 0 0 0 0 0 0 0 0 0 0 0 0 0 0 0 127 0"/><feOffset dx="-4" dy="-3"/><feGaussianBlur stdDeviation="4"/><feColorMatrix values="0 0 0 0 0 0 0 0 0 0 0 0 0 0 0 0 0 0 0.1 0"/><feBlend in2="effect1_dropShadow" result="effect2_dropShadow"/><feBlend in="SourceGraphic" in2="effect2_dropShadow" result="shape"/></filter><filter id="filter8_ddd" x="434" y="108" width="346" height="349" filterUnits="userSpaceOnUse" color-interpolation-filters="sRGB"><feFlood flood-opacity="0" result="BackgroundImageFix"/><feColorMatrix in="SourceAlpha" values="0 0 0 0 0 0 0 0 0 0 0 0 0 0 0 0 0 0 127 0"/><feOffset dx="8" dy="15"/><feGaussianBlur stdDeviation="10"/><feColorMatrix values="0 0 0 0 0.00392157 0 0 0 0 0.239216 0 0 0 0 0.501961 0 0 0 0.05 0"/><feBlend in2="BackgroundImageFix" result="effect1_dropShadow"/><feColorMatrix in="SourceAlpha" values="0 0 0 0 0 0 0 0 0 0 0 0 0 0 0 0 0 0 127 0"/><feOffset dx="4" dy="10"/><feGaussianBlur stdDeviation="5"/><feColorMatrix values="0 0 0 0 0.00392157 0 0 0 0 0.239216 0 0 0 0 0.501961 0 0 0 0.05 0"/><feBlend in2="effect1_dropShadow" result="effect2_dropShadow"/><feColorMatrix in="SourceAlpha" values="0 0 0 0 0 0 0 0 0 0 0 0 0 0 0 0 0 0 127 0"/><feOffset dx="-3" dy="-3"/><feGaussianBlur stdDeviation="2.5"/><feColorMatrix values="0 0 0 0 0 0 0 0 0 0.0811954 0 0 0 0 0.371179 0 0 0 0.1 0"/><feBlend in2="effect2_dropShadow" result="effect3_dropShadow"/><feBlend in="SourceGraphic" in2="effect3_dropShadow" result="shape"/></filter></defs></svg>