<svg width="331" height="94" fill="none" xmlns="http://www.w3.org/2000/svg"><path d="M139.789 91.66h-7.987s-.057-75.325-.057-86.816c0-2.643.747-3.504 3.39-3.39 4.366.173 7.929 1.437 10.112 5.401 14.421-11.548 34.875-7.469 45.447 4.77 10.917 12.64 11.491 30.968 1.092 44.182-9.883 12.525-28.958 17.984-45.103 7.297v21.718c0 3.792-3.102 6.837-6.894 6.837zm24.935-37.634c11.032.057 19.88-8.733 19.88-19.765 0-10.686-8.848-19.534-19.478-19.592-11.031-.057-19.994 8.733-19.994 19.65-.057 10.859 8.676 19.65 19.592 19.707z" fill="#fff"/><path d="M251.424 6.913c2.471-4.424 6.32-5.459 10.859-5.401 1.954 0 2.586.575 2.528 2.47-.057 6.263-.057 12.526-.057 18.788 0 13.732.057 38.955.057 41.196 0 2.24-.459 3.39-3.16 3.332-4.366-.115-7.929-1.321-10.342-5.515-8.503 6.837-17.983 8.388-28.21 5.918-8.159-1.954-14.422-6.723-19.363-13.388-9.652-12.985-8.158-31.83 3.218-43.895 10.859-11.32 30.394-14.766 44.47-3.505zM231.66 54.026c11.146.115 19.822-8.503 19.879-19.65.058-10.744-8.618-19.592-19.305-19.707-10.916-.115-19.937 8.504-20.109 19.305-.173 11.032 8.503 19.937 19.535 20.052zM113.532 6.913c2.47-4.424 6.377-5.458 10.916-5.458 1.954 0 2.586.632 2.528 2.528-.057 6.262-.057 46.251 0 60.04 0 2.413-.459 3.39-3.16 3.333-4.366-.115-7.929-1.322-10.342-5.516-8.503 6.837-17.983 8.388-28.21 5.918-8.16-1.954-14.422-6.722-19.363-13.387-9.652-12.985-8.158-31.83 3.218-43.896C79.92-.901 99.455-4.348 113.532 6.913zM93.767 54.026c11.146.115 19.822-8.503 19.88-19.65.057-10.744-8.619-19.592-19.306-19.707-10.916-.115-19.936 8.504-20.109 19.305-.172 11.032 8.504 19.937 19.535 20.052z" fill="#fff"/><path d="M276.303 90.395c2.872-6.607 6.779-15.398 8.79-19.764 2.011-4.424 1.839-7.584-.057-11.779-8.101-17.983-15.915-36.14-23.844-54.295-.345-.747.574-3.045.574-3.045h3.333c11.663 0 10.514-.345 15.111 9.94 5.113 11.49 10.112 22.982 15.34 34.933 2.93-6.723 5.746-12.985 8.503-19.305 2.299-5.286 6.435-15.054 8.906-20.857a7.711 7.711 0 0 1 7.125-4.711H331s-24.878 57.455-36.599 84.114c-3.447 8.044-10.342 9.94-18.098 4.77zm-259.698 0c2.872-6.607 6.837-15.168 8.79-19.764 1.954-4.597 1.839-7.584-.057-11.779C17.237 40.87 0 1.34 0 1.34h5.056c11.663 0 10.917-.173 15.513 10.17C25.683 23 30.681 34.49 35.909 46.441c2.93-6.722 5.746-12.985 8.504-19.305 2.298-5.286 6.435-15.053 8.906-20.856a7.709 7.709 0 0 1 7.124-4.712h10.916S46.481 59.025 34.761 85.684c-3.505 7.986-10.4 9.882-18.156 4.711z" fill="#fff"/></svg>